<svg width="31" height="30" viewBox="0 0 31 30" fill="none" xmlns="http://www.w3.org/2000/svg">
<path d="M21.785 0H9.215C3.755 0 0.5 3.255 0.5 8.715V21.27C0.5 26.745 3.755 30 9.215 30H21.77C27.23 30 30.485 26.745 30.485 21.285V8.715C30.5 3.255 27.245 0 21.785 0ZM19.685 15.795L14.39 21.09C14.165 21.315 13.88 21.42 13.595 21.42C13.31 21.42 13.025 21.315 12.8 21.09C12.365 20.655 12.365 19.935 12.8 19.5L17.3 15L12.8 10.5C12.365 10.065 12.365 9.345 12.8 8.91C13.235 8.475 13.955 8.475 14.39 8.91L19.685 14.205C20.135 14.64 20.135 15.36 19.685 15.795Z" fill="#0046AC"/>
</svg>
