<svg width="31" height="30" viewBox="0 0 31 30" fill="none" xmlns="http://www.w3.org/2000/svg">
<path d="M21.785 0H9.215C3.755 0 0.5 3.255 0.5 8.715V21.27C0.5 26.745 3.755 30 9.215 30H21.77C27.23 30 30.485 26.745 30.485 21.285V8.715C30.5 3.255 27.245 0 21.785 0ZM18.185 19.5C18.62 19.935 18.62 20.655 18.185 21.09C17.96 21.315 17.675 21.42 17.39 21.42C17.105 21.42 16.82 21.315 16.595 21.09L11.3 15.795C10.865 15.36 10.865 14.64 11.3 14.205L16.595 8.91C17.03 8.475 17.75 8.475 18.185 8.91C18.62 9.345 18.62 10.065 18.185 10.5L13.685 15L18.185 19.5Z" fill="#0046AC"/>
</svg>
