<svg width="87" height="38" viewBox="0 0 87 38" fill="none" xmlns="http://www.w3.org/2000/svg">
<path d="M22.3183 0.855848L34.2808 0.855846L12.5307 37.8308L0.0244937 37.8308L22.3183 0.855848Z" fill="#0046AC"/>
<path d="M35.912 0.85587L47.8746 0.855877L31.834 27.8992L19.624 27.8992L35.912 0.85587Z" fill="#0046AC"/>
<path d="M57.1182 16.0808L45.1557 16.0808L41.3494 11.4589L47.8742 0.855811L57.1182 16.0808Z" fill="#0A84C2"/>
<path d="M43.658 27.4496L40.8547 23.7672V27.4496H38.8234V19.1107H40.8547V22.7694L43.6343 19.1107H46.0219L42.7909 23.197L46.1407 27.4496H43.658ZM49.1017 19.1107V24.0998C49.1017 24.5987 49.2244 24.9828 49.4699 25.252C49.7154 25.5213 50.0757 25.6559 50.5509 25.6559C51.026 25.6559 51.3903 25.5213 51.6437 25.252C51.8971 24.9828 52.0238 24.5987 52.0238 24.0998V19.1107H54.0551V24.0879C54.0551 24.8323 53.8967 25.4619 53.58 25.9766C53.2632 26.4914 52.8356 26.8794 52.2971 27.1407C51.7665 27.4021 51.1725 27.5327 50.5152 27.5327C49.858 27.5327 49.268 27.406 48.7453 27.1526C48.2306 26.8913 47.8227 26.5032 47.5218 25.9885C47.2209 25.4658 47.0704 24.8323 47.0704 24.0879V19.1107H49.1017ZM59.7341 27.4496L57.9998 24.3017H57.5128V27.4496H55.4815V19.1107H58.8907C59.548 19.1107 60.1063 19.2255 60.5656 19.4552C61.0328 19.6848 61.3813 20.0016 61.6109 20.4055C61.8406 20.8014 61.9554 21.2449 61.9554 21.7359C61.9554 22.2902 61.797 22.7852 61.4803 23.2207C61.1714 23.6563 60.7121 23.9652 60.1023 24.1473L62.0267 27.4496H59.7341ZM57.5128 22.8644H58.7719C59.1441 22.8644 59.4213 22.7733 59.6034 22.5912C59.7935 22.409 59.8885 22.1517 59.8885 21.8191C59.8885 21.5023 59.7935 21.2528 59.6034 21.0707C59.4213 20.8886 59.1441 20.7975 58.7719 20.7975H57.5128V22.8644ZM66.2477 27.5327C65.6379 27.5327 65.0915 27.4337 64.6085 27.2358C64.1254 27.0378 63.7373 26.7448 63.4443 26.3567C63.1592 25.9687 63.0088 25.5015 62.9929 24.955H65.1549C65.1866 25.2639 65.2935 25.5015 65.4756 25.6678C65.6577 25.8262 65.8953 25.9053 66.1883 25.9053C66.4893 25.9053 66.7268 25.838 66.9011 25.7034C67.0753 25.5609 67.1624 25.3668 67.1624 25.1213C67.1624 24.9155 67.0911 24.7452 66.9486 24.6106C66.8139 24.4759 66.6437 24.3651 66.4378 24.278C66.2398 24.1908 65.9547 24.0919 65.5825 23.981C65.044 23.8147 64.6045 23.6484 64.264 23.4821C63.9234 23.3158 63.6304 23.0703 63.3849 22.7456C63.1394 22.4209 63.0167 21.9972 63.0167 21.4746C63.0167 20.6985 63.2978 20.0927 63.8601 19.6571C64.4224 19.2137 65.1549 18.9919 66.0577 18.9919C66.9763 18.9919 67.7167 19.2137 68.279 19.6571C68.8412 20.0927 69.1422 20.7025 69.1818 21.4865H66.9842C66.9684 21.2172 66.8694 21.0073 66.6872 20.8569C66.5051 20.6985 66.2715 20.6193 65.9864 20.6193C65.7409 20.6193 65.5429 20.6866 65.3924 20.8212C65.242 20.9479 65.1668 21.134 65.1668 21.3795C65.1668 21.6488 65.2935 21.8587 65.5469 22.0091C65.8003 22.1596 66.1962 22.3219 66.7347 22.4961C67.2733 22.6783 67.7088 22.8525 68.0414 23.0188C68.3819 23.1851 68.6749 23.4266 68.9204 23.7434C69.1659 24.0602 69.2887 24.468 69.2887 24.9669C69.2887 25.4421 69.1659 25.8737 68.9204 26.2617C68.6829 26.6497 68.3344 26.9586 67.8751 27.1883C67.4158 27.4179 66.8733 27.5327 66.2477 27.5327Z" fill="#0046AC"/>
<path d="M71.7979 20.0491V22.8169H74.8151V23.7078H71.7979V26.5587H75.1714V27.4496H70.7169V19.1582H75.1714V20.0491H71.7979ZM83.6492 19.1701L80.5251 27.4496H79.2779L76.1538 19.1701H77.306L79.9074 26.3092L82.5089 19.1701H83.6492ZM85.9155 19.1701V27.4496H84.8345V19.1701H85.9155ZM85.381 18.4099C85.2067 18.4099 85.0563 18.3505 84.9296 18.2317C84.8108 18.1129 84.7514 17.9664 84.7514 17.7922C84.7514 17.6179 84.8108 17.4714 84.9296 17.3526C85.0563 17.2259 85.2067 17.1626 85.381 17.1626C85.5552 17.1626 85.7017 17.2259 85.8205 17.3526C85.9393 17.4714 85.9986 17.6179 85.9986 17.7922C85.9986 17.9664 85.9393 18.1129 85.8205 18.2317C85.7017 18.3505 85.5552 18.4099 85.381 18.4099Z" fill="#0A84C2"/>
</svg>
